# xmcd CD database file
#
# Track frame offsets:
#	150
#	11442
#	25235
#	38105
#	49460
#	62012
#	76705
#	95027
#	104850
#	115542
#	138830
#	149427
#	161977
#	173400
#
# Disc length: 2576 seconds
#
# Revision: 0
# Processed by: cddbd v1.4PL0 Copyright (c) Steve Scherf et al.
# Submitted via: CDex 1.50beta9
#
DISCID=b80a0e0e
DTITLE=Dinah Washington - the Diff'rence is Dinah CD3
DYEAR=2000
DGENRE=Jazz
TTITLE0=THIS BITTER EARTH
TTITLE1=I CONCENTRATE ON YOU
TTITLE2=MAKE ME APRESENT OF YOU
TTITLE3=EVERYBODY'S SOMEBODY'S FOOL
TTITLE4=GOD BLESS THE CHILDREN
TTITLE5=NO MORE
TTITLE6=YOU DON'T KNOW WHAT LOVE IS
TTITLE7=THERE IS NO GREATER LOVE
TTITLE8=COME RAIN OR COME SHINE
TTITLE9=DARN THAT DREAM
TTITLE10=BEWITCHED
TTITLE11=IN THE WEE SMALL HOURS OF THE MORNING
TTITLE12=DON'T EXPLAIN
TTITLE13=SO IN LOVE
EXTD=YEAR: 2000
EXTT0=
EXTT1=
EXTT2=
EXTT3=
EXTT4=
EXTT5=
EXTT6=
EXTT7=
EXTT8=
EXTT9=
EXTT10=
EXTT11=
EXTT12=
EXTT13=
PLAYORDER=
